<?xml version="1.0" encoding="UTF-8"?>
<svg xmlns="http://www.w3.org/2000/svg" xmlns:xlink="http://www.w3.org/1999/xlink" width="50px" height="50px" viewBox="0 0 50 50" version="1.1">
<g id="surface1">
<path style=" stroke:none;fill-rule:nonzero;fill:rgb(0%,0%,0%);fill-opacity:1;" d="M 3.125 0 L 46.875 0 C 48.601562 0 50 1.378906 50 3.082031 L 50 46.917969 C 50 48.621094 48.601562 50 46.875 50 L 3.125 50 C 1.398438 50 0 48.621094 0 46.917969 L 0 3.082031 C 0 1.378906 1.398438 0 3.125 0 Z M 3.125 0 "/>
<path style=" stroke:none;fill-rule:nonzero;fill:rgb(100%,100%,100%);fill-opacity:1;" d="M 2.972656 2.960938 L 15.707031 2.960938 C 16.695312 3.582031 17.859375 4.070312 19.128906 4.445312 C 20.398438 4.820312 21.875 3.957031 23.296875 4.136719 C 24.007812 4.230469 24.578125 4.753906 25.304688 4.769531 C 26.027344 4.785156 26.902344 4.289062 27.621094 4.308594 C 29.066406 4.34375 29.5 5.75 31.722656 5.546875 C 33.050781 5.425781 34.015625 4.691406 35.335938 4.199219 C 36.65625 3.710938 38.335938 3.535156 39.730469 3.550781 C 42.398438 3.582031 45.066406 2.214844 47.734375 1.636719 L 47.875 20.503906 C 46.46875 21.449219 47.523438 23.035156 47.429688 24.507812 C 47.378906 25.3125 47.269531 26.144531 46.652344 26.570312 C 46.042969 27 46.101562 28.011719 46.386719 29.171875 C 46.769531 30.707031 46.136719 32.25 45.835938 33.757812 C 45.53125 35.261719 44.917969 36.683594 43.703125 37.914062 C 42.511719 39.117188 40.738281 41.148438 38.640625 41.464844 C 35.929688 41.875 35.023438 43.117188 33.570312 44.703125 C 32.898438 45.433594 32.585938 45.640625 31.019531 45.78125 C 30.144531 45.859375 30.371094 46.53125 28.421875 46.648438 C 26.5 46.761719 24.714844 47.878906 23.570312 47.875 C 20.363281 47.871094 17.726562 43.601562 13.5 43.011719 C 11.386719 42.714844 9.433594 41.78125 7.519531 40.757812 C 6.558594 40.246094 5.636719 39.230469 4.574219 39.046875 C 3.296875 38.828125 3.019531 37.785156 2.125 37.347656 L 2.125 3.867188 C 2.09375 3.253906 2.480469 2.949219 2.972656 2.960938 Z M 2.972656 2.960938 "/>
<path style=" stroke:none;fill-rule:nonzero;fill:rgb(0%,0%,0%);fill-opacity:1;" d="M 22.1875 28.445312 C 22.1875 29.710938 21.976562 30.875 21.554688 31.941406 C 21.132812 33.007812 20.539062 33.925781 19.769531 34.695312 C 19.023438 35.4375 18.121094 36.035156 17.054688 36.480469 C 16.011719 36.902344 14.859375 37.113281 13.59375 37.113281 C 12.578125 37.113281 11.621094 36.953125 10.730469 36.628906 C 9.859375 36.308594 9.054688 35.859375 8.3125 35.289062 C 7.589844 34.71875 6.972656 34.027344 6.449219 33.207031 C 5.929688 32.386719 5.546875 31.472656 5.296875 30.453125 L 9.167969 29.339844 C 9.464844 30.554688 10.011719 31.484375 10.804688 32.128906 C 11.597656 32.773438 12.589844 33.09375 13.78125 33.09375 C 14.449219 33.09375 15.058594 32.984375 15.601562 32.761719 C 16.148438 32.539062 16.605469 32.238281 16.980469 31.867188 C 17.375 31.472656 17.6875 31.011719 17.910156 30.492188 C 18.132812 29.945312 18.242188 29.351562 18.242188 28.707031 C 18.242188 28.0625 18.121094 27.453125 17.871094 26.882812 C 17.625 26.3125 17.277344 25.867188 16.832031 25.542969 C 16.679688 25.445312 16.546875 25.371094 16.421875 25.320312 C 16.320312 25.246094 16.1875 25.195312 16.011719 25.171875 C 15.863281 25.144531 15.652344 25.121094 15.378906 25.097656 C 15.132812 25.070312 14.773438 25.046875 14.300781 25.023438 L 13.855469 25.023438 L 13.855469 21.003906 L 13.855469 21.117188 L 14.820312 21.117188 C 15.613281 21.117188 16.222656 20.90625 16.644531 20.484375 C 17.066406 20.0625 17.277344 19.453125 17.277344 18.660156 C 17.277344 17.695312 16.929688 16.898438 16.234375 16.28125 C 15.566406 15.636719 14.722656 15.3125 13.707031 15.3125 C 12.042969 15.3125 10.792969 16.132812 9.949219 17.769531 L 6.265625 16.390625 C 6.910156 14.804688 7.878906 13.5625 9.167969 12.671875 C 10.480469 11.753906 11.957031 11.292969 13.59375 11.292969 C 14.636719 11.292969 15.613281 11.492188 16.53125 11.890625 C 17.476562 12.285156 18.292969 12.832031 18.988281 13.527344 C 19.683594 14.222656 20.226562 15.039062 20.625 15.980469 C 21.023438 16.898438 21.21875 17.878906 21.21875 18.921875 C 21.21875 19.664062 21.121094 20.335938 20.921875 20.929688 C 20.722656 21.523438 20.351562 22.21875 19.804688 23.011719 C 20.277344 23.433594 20.664062 23.84375 20.960938 24.242188 C 21.257812 24.613281 21.492188 25.011719 21.667969 25.429688 C 21.863281 25.851562 22 26.3125 22.074219 26.808594 C 22.148438 27.277344 22.1875 27.824219 22.1875 28.445312 "/>
<path style=" stroke:none;fill-rule:nonzero;fill:rgb(0%,0%,0%);fill-opacity:1;" d="M 26.800781 36.667969 C 26.851562 35.203125 27.035156 33.863281 27.359375 32.648438 C 27.679688 31.433594 28.191406 30.230469 28.882812 29.039062 C 29.40625 28.097656 30.050781 27.230469 30.820312 26.4375 C 31.585938 25.617188 32.40625 24.886719 33.273438 24.242188 C 33.496094 24.117188 33.695312 23.992188 33.871094 23.867188 C 34.042969 23.71875 34.214844 23.582031 34.390625 23.460938 L 35.730469 22.753906 L 36.957031 22.046875 L 38.148438 21.375 C 38.644531 21.054688 39.039062 20.65625 39.339844 20.1875 C 39.660156 19.691406 39.820312 19.179688 39.820312 18.660156 C 39.820312 18.191406 39.699219 17.753906 39.449219 17.359375 C 39.203125 16.9375 38.867188 16.578125 38.445312 16.28125 C 38.046875 15.980469 37.578125 15.746094 37.03125 15.574219 C 36.484375 15.398438 35.902344 15.3125 35.28125 15.3125 C 34.019531 15.3125 32.988281 15.609375 32.195312 16.207031 C 31.425781 16.800781 30.941406 17.667969 30.746094 18.808594 L 26.800781 17.953125 C 27.222656 15.871094 28.191406 14.246094 29.703125 13.082031 C 31.214844 11.890625 33.074219 11.292969 35.28125 11.292969 C 36.472656 11.292969 37.578125 11.492188 38.59375 11.890625 C 39.636719 12.285156 40.527344 12.820312 41.273438 13.488281 C 42.042969 14.160156 42.648438 14.953125 43.09375 15.871094 C 43.542969 16.761719 43.765625 17.71875 43.765625 18.734375 C 43.765625 19.703125 43.542969 20.65625 43.09375 21.597656 C 42.671875 22.515625 42.054688 23.335938 41.234375 24.054688 C 41.035156 24.203125 40.851562 24.339844 40.675781 24.464844 C 40.527344 24.589844 40.367188 24.6875 40.195312 24.761719 L 38.964844 25.542969 L 37.625 26.25 L 36.398438 26.957031 C 35.804688 27.304688 35.269531 27.675781 34.800781 28.074219 C 34.351562 28.445312 33.929688 28.855469 33.535156 29.300781 C 33.164062 29.746094 32.804688 30.242188 32.457031 30.789062 C 32.132812 31.335938 31.824219 31.953125 31.527344 32.648438 L 43.765625 32.648438 L 43.765625 36.667969 L 26.800781 36.667969 "/>
</g>
</svg>
